<?xml version="1.0" standalone="no"?>
<!DOCTYPE svg PUBLIC "-//W3C//DTD SVG 20010904//EN"
 "http://www.w3.org/TR/2001/REC-SVG-20010904/DTD/svg10.dtd">
<svg version="1.0" xmlns="http://www.w3.org/2000/svg"
 width="331.000000pt" height="331.000000pt" viewBox="0 0 331.000000 331.000000"
 preserveAspectRatio="xMidYMid meet">
<metadata>
Created by potrace 1.11, written by Peter Selinger 2001-2013
</metadata>
<g transform="translate(0.000000,331.000000) scale(0.100000,-0.100000)"
fill="#000000" stroke="none">
<path d="M1810 3265 c0 -26 23 -35 36 -13 4 7 3 8 -4 4 -7 -4 -12 -1 -12 8 0
9 5 16 11 16 46 0 76 -69 60 -141 -14 -61 -27 -68 -35 -17 -14 92 -82 145
-170 133 -28 -3 -70 -15 -93 -25 -41 -18 -43 -21 -43 -63 0 -30 7 -53 21 -71
27 -34 18 -58 -18 -54 -22 2 -33 13 -51 51 -16 35 -32 52 -57 62 -33 14 -65
11 -65 -5 0 -20 13 -40 26 -40 17 0 18 17 2 23 -26 9 2 19 29 10 30 -10 69
-71 54 -86 -5 -5 -20 -1 -36 9 -21 14 -31 15 -46 6 -27 -17 -48 -5 -55 33 -10
54 -44 78 -119 83 -86 6 -99 -5 -92 -75 4 -40 2 -57 -10 -68 -14 -14 -18 -14
-41 1 -25 16 -26 16 -44 -6 -17 -21 -22 -22 -52 -12 -51 19 -59 16 -53 -18 4
-19 1 -34 -9 -45 -20 -19 -18 -20 -58 15 -25 22 -48 32 -86 37 -47 5 -53 3
-81 -23 -42 -39 -59 -75 -59 -123 0 -31 8 -50 42 -91 65 -79 70 -88 63 -100
-3 -5 -17 -10 -29 -10 -32 0 -44 -18 -48 -70 l-3 -45 -37 3 c-57 4 -78 -11
-78 -58 0 -32 6 -45 30 -67 45 -40 39 -47 -39 -39 -60 5 -72 3 -95 -15 -44
-35 -30 -92 27 -112 20 -7 61 27 54 46 -2 7 -14 13 -28 14 -15 1 -18 0 -6 -3
26 -8 17 -39 -12 -39 -30 0 -46 24 -37 58 8 31 32 40 89 32 41 -6 44 -9 45
-39 1 -18 -10 -54 -23 -81 -33 -64 -33 -95 -1 -95 27 0 36 -15 29 -51 -3 -18
-21 -33 -71 -58 -86 -44 -112 -68 -112 -102 0 -40 37 -76 96 -92 64 -19 103
-12 115 20 12 32 43 27 47 -7 5 -46 24 -70 54 -70 20 0 28 -5 28 -18 0 -29 29
-62 56 -62 13 0 24 -1 24 -3 0 -13 -41 -142 -49 -150 -13 -17 -97 -281 -111
-350 -11 -57 -11 -60 16 -99 32 -45 79 -85 109 -90 15 -2 21 3 23 21 3 17 -8
36 -36 65 -22 22 -45 51 -51 63 -22 44 -7 243 19 243 4 0 13 -14 20 -30 21
-50 67 -108 101 -126 20 -10 49 -15 80 -12 l48 3 17 -75 c41 -190 122 -384
207 -499 61 -83 80 -140 67 -208 -5 -31 -15 -61 -20 -68 -6 -7 -51 -28 -100
-46 -50 -18 -89 -38 -87 -44 1 -6 -12 -41 -28 -77 -24 -54 -34 -68 -52 -68
-30 0 -29 16 2 36 31 20 32 34 3 34 -29 0 -105 -80 -156 -166 -39 -65 -41 -69
-21 -72 11 -2 27 5 35 15 13 16 13 16 8 1 -6 -17 9 -18 211 -18 l218 0 -19 22
-19 22 37 -23 c21 -12 46 -21 57 -19 14 2 -9 22 -79 70 l-98 66 -48 -23 -47
-23 -24 34 -23 35 31 67 30 67 62 -66 c34 -37 81 -89 105 -115 24 -27 40 -42
36 -34 -18 37 -82 120 -137 177 -41 42 -56 64 -46 67 48 14 116 40 127 49 21
17 25 0 15 -65 l-11 -63 42 -56 c22 -30 57 -85 76 -122 19 -37 41 -67 48 -67
7 0 10 5 7 10 -3 6 3 10 15 10 12 0 18 -4 15 -10 -10 -16 21 -12 35 5 7 8 35
28 64 45 96 56 111 76 141 180 15 52 31 101 34 108 5 8 30 -15 74 -68 61 -73
67 -84 67 -126 0 -35 -6 -54 -25 -76 -14 -16 -25 -40 -25 -54 0 -24 1 -24 96
-24 l95 0 -37 70 c-20 39 -47 81 -60 93 -13 12 -24 29 -24 37 0 8 -35 53 -77
99 l-77 83 12 57 c7 32 12 74 12 94 0 30 4 37 20 37 13 0 20 7 20 18 0 23 40
62 64 62 15 0 16 3 7 14 -17 20 2 28 35 16 15 -6 29 -8 32 -5 3 3 -9 10 -26
16 -18 6 -32 15 -32 21 0 5 11 37 24 71 63 165 107 318 126 437 7 41 14 78 16
82 3 4 25 -4 51 -17 67 -36 140 -35 176 3 33 35 55 88 58 141 2 23 6 44 10 47
5 2 20 -16 35 -41 22 -39 26 -54 21 -95 -3 -27 -15 -67 -26 -89 -39 -76 -20
-132 33 -97 28 18 46 86 46 176 0 55 -3 62 -46 112 -25 29 -49 53 -54 53 -4 0
-12 4 -17 9 -5 5 -3 6 5 2 24 -14 11 10 -31 59 -24 28 -53 67 -66 88 -13 20
-27 34 -33 31 -6 -4 -8 -2 -4 4 3 6 -3 27 -15 46 -22 38 -20 41 26 48 11 2 26
16 33 31 10 20 21 27 40 27 45 0 75 27 69 64 -2 17 -1 41 4 54 8 20 13 22 49
16 29 -5 47 -2 66 11 22 14 25 21 19 51 -5 31 -4 34 17 34 29 0 118 75 118
100 0 18 -68 80 -87 80 -5 0 -20 11 -33 25 l-24 25 32 33 c29 30 32 39 32 96
0 62 -1 65 -44 107 -38 39 -47 43 -75 38 -28 -6 -31 -4 -31 18 0 14 8 32 18
40 40 36 90 29 79 -11 -6 -23 8 -29 16 -7 3 7 -1 23 -9 35 -34 47 -114 7 -114
-57 -1 -47 -19 -70 -64 -83 -42 -12 -76 2 -76 30 0 25 35 68 71 86 53 28 27
98 -41 112 -29 5 -40 26 -20 38 6 3 10 15 10 26 0 12 7 19 18 19 38 0 62 37
62 94 0 45 -4 56 -30 81 -23 22 -40 29 -71 30 -39 1 -43 4 -66 48 -31 62 -99
107 -160 107 -37 0 -49 -6 -80 -36 -33 -33 -35 -39 -30 -79 5 -33 2 -46 -12
-59 -24 -21 -28 -20 -33 8 -3 14 5 46 18 73 27 55 31 121 9 162 -15 31 -33 41
-71 41 -19 0 -24 -5 -24 -25z m505 -278 c19 -16 28 -35 32 -67 4 -39 1 -48
-21 -69 -22 -21 -29 -23 -51 -13 -27 12 -42 38 -31 50 4 3 16 0 28 -7 17 -10
19 -10 16 1 -7 20 -58 23 -58 4 0 -24 -23 -19 -50 9 l-23 25 26 26 c15 14 29
35 32 45 9 28 67 25 100 -4z m-1535 5 c0 -5 -11 -14 -26 -20 -22 -10 -54 -64
-54 -90 0 -5 22 -35 50 -66 48 -55 70 -99 55 -114 -3 -4 -10 0 -15 8 -5 8 -31
43 -59 78 -54 67 -57 75 -40 119 17 45 89 113 89 85z m635 -572 c3 -5 20 -10
38 -10 28 0 29 -1 12 -14 -11 -8 -16 -19 -12 -30 4 -9 0 -28 -9 -41 -11 -18
-13 -29 -5 -43 19 -36 101 -54 101 -22 0 6 -12 15 -27 21 l-28 11 32 13 c17 7
41 11 53 8 13 -4 33 2 51 16 37 28 51 19 43 -25 -6 -32 -4 -34 25 -40 17 -4
36 -13 42 -20 6 -8 22 -14 34 -14 25 0 35 22 35 81 0 34 2 37 36 42 33 6 44 2
92 -29 4 -3 42 -153 42 -166 0 -6 -6 -5 -14 1 -18 15 -68 11 -73 -6 -3 -7 3
-9 17 -6 11 3 28 -1 38 -9 9 -8 25 -18 34 -21 11 -4 19 -22 23 -54 4 -26 10
-71 14 -99 l8 -52 -176 -6 c-245 -9 -246 -10 -301 -66 -53 -54 -78 -70 -114
-70 -31 0 -32 11 -11 90 17 64 19 90 6 90 -19 0 -41 -32 -58 -86 l-17 -55 -17
23 c-17 21 -26 23 -159 26 -139 4 -141 5 -137 26 3 11 13 57 22 101 17 81 66
213 91 250 8 11 14 28 14 38 0 11 12 34 28 52 15 17 32 39 37 48 6 8 19 18 31
21 18 6 21 2 22 -25 1 -38 18 -59 48 -59 19 0 24 5 24 24 0 13 -5 26 -11 28
-18 6 11 56 35 61 11 2 24 5 28 6 4 0 10 -3 13 -9z m-761 -85 c-1 -25 -11 -57
-22 -72 -11 -16 -23 -38 -26 -50 -4 -13 -12 -23 -17 -23 -15 0 -10 33 11 73
11 20 20 49 20 63 0 21 17 46 36 54 0 0 -1 -20 -2 -45z m462 -116 c-9 -19 -15
-29 -16 -22 0 18 20 66 25 61 3 -3 -1 -20 -9 -39z m-650 -243 c-8 -31 24 -72
61 -79 15 -3 41 2 56 10 36 18 41 14 18 -16 -18 -23 -21 -23 -67 -12 -51 13
-94 44 -94 68 0 17 18 53 26 53 4 0 3 -11 0 -24z m260 -98 c4 -12 17 -31 30
-41 13 -10 24 -25 24 -34 0 -11 -4 -13 -12 -6 -7 6 -25 13 -40 17 -26 6 -49
48 -35 63 4 3 2 14 -4 25 -9 17 -8 18 10 9 11 -6 23 -21 27 -33z m1384 -18 c6
-8 9 -61 7 -118 -2 -96 -4 -104 -26 -121 -33 -25 -125 -31 -353 -22 l-188 7
-43 42 c-39 38 -47 42 -94 42 -48 0 -52 -2 -79 -42 -16 -24 -32 -51 -37 -61
-6 -17 -18 -19 -145 -14 -179 6 -228 12 -259 32 -24 16 -25 21 -21 89 3 39 13
88 23 109 l19 37 176 0 c173 0 178 -1 211 -25 71 -52 95 -65 117 -65 29 0 91
32 116 59 11 12 25 21 31 21 7 0 15 7 19 15 11 30 52 35 284 32 194 -2 234 -4
242 -17z m120 -216 c0 -1 -21 0 -47 1 -52 3 -60 14 -48 62 l6 26 45 -44 c24
-24 44 -44 44 -45z m-1359 -30 c7 -8 1 -13 -21 -16 -16 -3 -30 -3 -30 -1 0 2
8 31 18 66 l17 62 3 -50 c2 -27 8 -55 13 -61z m626 14 l42 -41 248 -10 c136
-5 250 -10 251 -12 8 -7 -18 -293 -33 -375 -18 -99 -52 -215 -103 -354 -28
-75 -42 -100 -60 -107 -20 -8 -21 -12 -12 -30 11 -19 10 -20 -12 -14 -12 4
-35 14 -50 21 -15 8 -32 14 -38 14 -18 0 -11 -34 15 -73 28 -40 23 -44 -35
-27 -40 12 -60 -1 -40 -25 7 -8 9 -19 5 -23 -4 -4 -14 3 -22 15 -15 22 -43 32
-43 15 0 -4 7 -18 16 -30 17 -24 14 -39 -5 -27 -6 3 -20 24 -31 46 -28 54 -44
51 -36 -6 9 -58 -4 -57 -32 1 -25 51 -42 50 -42 -2 0 -48 -27 -45 -47 6 -9 22
-20 40 -25 40 -7 0 -12 -23 -9 -42 1 -10 -11 -10 -28 1 -8 5 -17 26 -20 47 -8
46 -23 51 -32 9 -5 -25 -7 -27 -14 -12 -4 9 -5 26 -2 37 3 11 1 20 -4 20 -5 0
-9 -7 -9 -15 0 -31 -22 -13 -67 58 -108 165 -199 456 -219 696 -11 134 -21
126 158 126 l153 0 -12 -85 c-6 -47 -12 -114 -12 -148 -1 -56 2 -65 19 -69 11
-3 20 -13 20 -22 0 -38 86 -91 148 -91 48 0 60 13 67 72 l6 46 -93 6 c-51 4
-103 7 -115 7 -22 1 -23 5 -23 78 0 82 22 250 39 294 9 23 16 27 53 27 36 0
48 -6 85 -42z m730 -29 c65 -32 83 -60 83 -134 0 -84 -24 -152 -64 -176 l-31
-20 -33 38 c-32 36 -77 112 -70 118 2 1 12 5 24 9 18 5 22 0 34 -43 15 -56 32
-68 66 -47 29 20 48 78 40 127 -4 26 -2 39 5 39 18 0 -11 31 -39 41 -29 11
-57 -2 -95 -45 l-27 -31 6 27 c3 15 2 41 -4 56 -11 33 -5 48 23 55 34 8 37 8
82 -14z m-1298 -21 l51 -11 0 -71 0 -71 -19 30 c-25 41 -82 70 -118 60 -15 -4
-23 -9 -16 -12 7 -3 10 -18 7 -41 l-4 -37 15 33 c8 17 20 32 25 32 6 0 3 -11
-6 -25 -11 -17 -14 -35 -10 -57 9 -44 34 -80 49 -71 7 4 21 6 32 4 19 -3 19
-2 3 16 -22 24 -23 46 -4 62 19 16 51 -39 60 -102 l7 -47 -41 0 c-70 0 -119
38 -165 129 -16 32 -16 38 0 98 17 60 41 93 71 93 7 0 35 -5 63 -12z m1171
-69 c0 -16 -4 -28 -9 -25 -8 5 -3 56 5 56 2 0 4 -14 4 -31z m340 -118 c23 -44
3 -196 -30 -226 -21 -19 -40 -13 -40 14 0 10 12 44 26 75 19 43 25 69 22 106
-3 52 4 63 22 31z m-1720 -162 c0 -49 11 -72 62 -124 38 -40 48 -65 26 -65
-25 1 -57 26 -87 65 -31 40 -39 89 -25 143 10 36 24 25 24 -19z m1085 -588
c-13 -13 -17 -13 -30 4 -22 30 -18 34 15 22 26 -10 28 -13 15 -26z m-385 -162
c14 -6 51 -24 83 -41 37 -19 70 -28 91 -27 23 2 39 -4 55 -20 21 -21 23 -30
18 -80 -3 -31 -9 -65 -13 -75 -5 -14 -4 -17 5 -11 13 8 11 -6 -10 -61 -4 -12
-45 -46 -91 -77 l-83 -54 -11 26 c-15 33 -143 224 -156 232 -11 7 -6 58 13
149 9 41 12 45 42 48 18 1 43 -3 57 -9z m520 -389 c17 -33 26 -60 20 -60 -5 0
-16 14 -25 30 -9 17 -20 30 -25 30 -6 0 -10 14 -10 30 0 17 2 30 5 30 3 0 18
-27 35 -60z m-730 5 l23 -25 -36 -2 c-20 -1 -44 -2 -54 -2 -27 -2 -25 18 5 36
36 22 35 22 62 -7z"/>
<path d="M1593 2095 c-18 -13 -21 -22 -16 -48 9 -48 39 -75 97 -86 214 -43
276 -50 276 -31 0 5 7 7 15 4 10 -4 15 0 15 11 0 9 -5 15 -12 13 -6 -2 -19 2
-27 9 -35 30 -158 106 -191 118 -65 23 -133 28 -157 10z"/>
<path d="M1223 2045 c-141 -52 -226 -165 -124 -165 39 0 170 39 237 71 77 36
86 55 44 91 -37 34 -72 35 -157 3z"/>
<path d="M1619 1829 c-30 -11 -39 -33 -39 -95 0 -77 4 -78 212 -84 101 -3 192
-3 203 -1 45 10 -33 19 -177 20 -92 1 -148 5 -148 11 0 6 5 10 10 10 18 0 12
88 -6 98 -46 26 -77 -24 -50 -79 18 -36 14 -48 -9 -29 -10 8 -15 30 -15 66 0
49 2 55 26 64 14 6 110 10 214 10 216 0 210 3 210 -89 0 -32 4 -51 11 -51 19
0 3 132 -18 148 -21 15 -383 16 -424 1z m27 -86 c-10 -10 -19 5 -10 18 6 11 8
11 12 0 2 -7 1 -15 -2 -18z"/>
<path d="M995 1812 c-38 -5 -45 -16 -44 -72 l2 -45 7 43 c7 44 21 62 52 62 23
0 38 -30 45 -90 l6 -50 -46 0 c-33 0 -49 5 -56 18 -6 9 -11 12 -11 6 0 -21 25
-33 90 -43 107 -18 183 -14 213 9 48 38 44 130 -5 149 -26 9 -208 19 -253 13z
m233 -28 c35 -5 40 -20 17 -50 -12 -16 -14 -17 -15 -2 0 9 6 18 13 21 6 2 8 8
4 13 -4 4 -16 3 -25 -3 -12 -8 -17 -24 -17 -62 l1 -51 -69 0 -69 0 6 30 c3 17
0 48 -8 70 -7 22 -12 41 -10 43 4 4 129 -2 172 -9z"/>
<path d="M1903 1341 c-18 -20 -50 -56 -70 -80 -60 -70 -180 -160 -278 -208
l-90 -45 -90 7 c-92 6 -123 13 -209 46 -89 34 -74 12 49 -73 163 -113 271
-136 383 -79 90 46 142 107 232 276 24 44 53 91 65 105 28 32 55 72 55 82 0
15 -15 5 -47 -31z m-105 -182 c-18 -33 -55 -90 -83 -127 -41 -55 -63 -73 -126
-106 -74 -39 -77 -40 -118 -26 -39 12 -121 73 -121 89 0 4 29 7 65 7 57 0 76
6 158 47 51 25 129 75 172 111 44 36 81 66 83 66 2 0 -12 -27 -30 -61z"/>
<path d="M1670 1230 c0 -5 9 -10 21 -10 11 0 17 5 14 10 -3 6 -13 10 -21 10
-8 0 -14 -4 -14 -10z"/>
<path d="M1590 1225 c0 -12 64 -36 78 -30 13 6 9 10 -18 20 -37 14 -60 18 -60
10z"/>
<path d="M1270 1134 c-45 -51 -27 -56 23 -6 28 28 36 42 25 42 -9 0 -30 -16
-48 -36z"/>
<path d="M1195 1110 c-24 -27 -14 -35 15 -12 14 11 19 21 13 25 -6 4 -18 -2
-28 -13z"/>
<path d="M1460 826 c0 -8 -12 -19 -27 -24 l-28 -10 30 -12 c17 -7 58 -17 93
-23 72 -13 97 -4 97 34 0 20 -7 26 -45 36 -65 17 -120 16 -120 -1z"/>
<path d="M1759 149 c-56 -36 -166 -116 -194 -141 -5 -5 -3 -8 6 -8 12 0 219
148 254 181 20 19 -4 7 -66 -32z"/>
<path d="M1712 30 c12 -17 26 -30 32 -30 5 0 -3 13 -19 30 -16 17 -30 30 -32
30 -2 0 6 -13 19 -30z"/>
</g>
</svg>
